<svg xmlns="http://www.w3.org/2000/svg" width="81.388" height="15.2" viewBox="0 0 81.388 15.2">
  <g id="Aptara_Logo" data-name="Aptara Logo" transform="translate(57.266 10.695)">
    <g id="Group_8" data-name="Group 8" transform="translate(-57.266 -10.695)">
      <path id="Path_20" data-name="Path 20" d="M12.064,15.2l-1.538-3.376H3.535L2,15.2H0L7.031,0l7.031,15.2Zm-2.3-4.994L7.031,4.214,4.314,10.206Z" fill="#666465"/>
      <path id="Path_21" data-name="Path 21" d="M119.274,1.811a4.25,4.25,0,0,1,4.594,4.534,4.245,4.245,0,0,1-4.594,4.514H115.26v5.893h-1.838V1.811Zm-4.035,7.43h3.815a2.723,2.723,0,0,0,2.936-2.9,2.718,2.718,0,0,0-2.936-2.916H115.24Z" transform="translate(-97.165 -1.551)" fill="#666465"/>
      <path id="Path_22" data-name="Path 22" d="M201.071,3.429V16.751h-1.838V3.429h-5.553V1.811h12.943V3.429Z" transform="translate(-165.92 -1.551)" fill="#666465"/>
      <path id="Path_23" data-name="Path 23" d="M389.613,10.759h-3.895v5.992h-1.838V1.811h5.772c2.576,0,4.594,1.5,4.594,4.474a4.09,4.09,0,0,1-2.736,4.175l3.515,6.292h-2.057Zm-.18-1.618a2.7,2.7,0,0,0,2.936-2.856,2.7,2.7,0,0,0-2.936-2.856H385.7V9.141Z" transform="translate(-328.857 -1.551)" fill="#666465"/>
      <path id="Path_24" data-name="Path 24" d="M481.775,15.2l-1.538-3.376h-6.991L471.709,15.2h-2L476.742,0l7.031,15.2Zm-2.3-4.994-2.736-5.992-2.716,5.992Z" transform="translate(-402.385)" fill="#666465"/>
      <path id="Path_25" data-name="Path 25" d="M277.366,4.215,282.421,15.2H284.4L277.366,0l-7.031,15.2h1.976Z" transform="translate(-231.587 0)" fill="#211c1c"/>
      <path id="Path_26" data-name="Path 26" d="M12.064,15.2l-1.538-3.376H3.535L2,15.2H0L7.031,0l7.031,15.2Zm-2.3-4.994L7.031,4.214,4.314,10.206Z" fill="#666465"/>
      <path id="Path_27" data-name="Path 27" d="M119.274,1.811a4.25,4.25,0,0,1,4.594,4.534,4.245,4.245,0,0,1-4.594,4.514H115.26v5.893h-1.838V1.811Zm-4.035,7.43h3.815a2.723,2.723,0,0,0,2.936-2.9,2.718,2.718,0,0,0-2.936-2.916H115.24Z" transform="translate(-97.165 -1.551)" fill="#666465"/>
      <path id="Path_28" data-name="Path 28" d="M201.071,3.429V16.751h-1.838V3.429h-5.553V1.811h12.943V3.429Z" transform="translate(-165.92 -1.551)" fill="#666465"/>
      <path id="Path_29" data-name="Path 29" d="M389.613,10.759h-3.895v5.992h-1.838V1.811h5.772c2.576,0,4.594,1.5,4.594,4.474a4.09,4.09,0,0,1-2.736,4.175l3.515,6.292h-2.057Zm-.18-1.618a2.7,2.7,0,0,0,2.936-2.856,2.7,2.7,0,0,0-2.936-2.856H385.7V9.141Z" transform="translate(-328.857 -1.551)" fill="#666465"/>
      <path id="Path_30" data-name="Path 30" d="M481.775,15.2l-1.538-3.376h-6.991L471.709,15.2h-2L476.742,0l7.031,15.2Zm-2.3-4.994-2.736-5.992-2.716,5.992Z" transform="translate(-402.385)" fill="#666465"/>
      <path id="Path_31" data-name="Path 31" d="M277.366,4.215,282.421,15.2H284.4L277.366,0l-7.031,15.2h1.976Z" transform="translate(-231.587 0)" fill="#02415b"/>
    </g>
  </g>
</svg>
