<svg id="baseline-perm_identity-24px" xmlns="http://www.w3.org/2000/svg" width="30.811" height="30.811" viewBox="0 0 30.811 30.811">
  <path id="Path_381" data-name="Path 381" d="M14.27,6.439a2.7,2.7,0,1,1-2.7,2.7,2.7,2.7,0,0,1,2.7-2.7m0,11.554c3.813,0,7.831,1.874,7.831,2.7V22.1H6.439V20.689c0-.822,4.018-2.7,7.831-2.7M14.27,4a5.135,5.135,0,1,0,5.135,5.135A5.134,5.134,0,0,0,14.27,4Zm0,11.554C10.843,15.554,4,17.274,4,20.689v3.851H24.541V20.689C24.541,17.274,17.7,15.554,14.27,15.554Z" transform="translate(1.135 1.135)" fill="#7841e8"/>
  <path id="Path_382" data-name="Path 382" d="M0,0H30.811V30.811H0Z" fill="none"/>
</svg>
