<svg xmlns="http://www.w3.org/2000/svg" width="49.486" height="49.403" viewBox="0 0 49.486 49.403">
  <path id="article_shortcut_24dp_1F1F1F_FILL0_wght200_GRAD0_opsz24" d="M139.052-763.674h10.395v-2.906H139.052Zm0-11.624h19.113V-778.2H139.052Zm-7.041-11.624h26.154v-2.906H132.011ZM145.088-776.752ZM131.2-750.6a11.949,11.949,0,0,1-8.738-3.585,11.81,11.81,0,0,1-3.613-8.709,11.829,11.829,0,0,1,2.227-7.076,12.341,12.341,0,0,1,5.714-4.437h-7.857v-2.906h13.189v13.189h-2.906v-8.053a9.224,9.224,0,0,0-5.354,3.264,9.131,9.131,0,0,0-2.107,5.963,9.1,9.1,0,0,0,2.752,6.7A9.125,9.125,0,0,0,131.2-753.5Zm7.851-2.906v-2.906h24.59a1.709,1.709,0,0,0,1.23-.559,1.709,1.709,0,0,0,.559-1.23v-37.107a1.709,1.709,0,0,0-.559-1.23,1.709,1.709,0,0,0-1.23-.559H126.534a1.709,1.709,0,0,0-1.23.559,1.709,1.709,0,0,0-.559,1.23v11.065H121.84v-11.065a4.548,4.548,0,0,1,1.344-3.351A4.548,4.548,0,0,1,126.534-800h37.107a4.548,4.548,0,0,1,3.351,1.344,4.548,4.548,0,0,1,1.344,3.351V-758.2a4.547,4.547,0,0,1-1.344,3.351,4.547,4.547,0,0,1-3.351,1.344Z" transform="translate(-118.85 800)" fill="#7841e8"/>
</svg>
