<svg xmlns="http://www.w3.org/2000/svg" width="14.984" height="14.894" viewBox="0 0 14.984 14.894">
  <g id="Group_30684" data-name="Group 30684" transform="translate(-0.004 -3.692)">
    <g id="Group_398" data-name="Group 398" transform="translate(0.504 4.192)">
      <path id="Path_1997" data-name="Path 1997" d="M11.8,268.25a.12.12,0,0,1-.238,0l-.121-.783a2.3,2.3,0,0,0-1.917-1.916l-.783-.122a.12.12,0,0,1,0-.238l.783-.122a2.3,2.3,0,0,0,1.917-1.916l.121-.783a.12.12,0,0,1,.238,0l.121.783a2.3,2.3,0,0,0,1.917,1.916l.783.122a.12.12,0,0,1,0,.238l-.783.122a2.3,2.3,0,0,0-1.917,1.916Z" transform="translate(-8.639 -254.458)" fill="#111" stroke="#111" stroke-width="1"/>
      <path id="Path_1998" data-name="Path 1998" d="M77.794,83.018a.223.223,0,0,1-.441,0l-.225-1.452a4.256,4.256,0,0,0-3.553-3.553l-1.452-.225a.223.223,0,0,1,0-.441l1.452-.225a4.256,4.256,0,0,0,3.553-3.553l.225-1.452a.223.223,0,0,1,.441,0l.225,1.452a4.256,4.256,0,0,0,3.553,3.553l1.452.225a.223.223,0,0,1,0,.441l-1.452.225a4.256,4.256,0,0,0-3.553,3.553Z" transform="translate(-69.338 -71.928)" fill="#111" stroke="#111" stroke-width="1"/>
      <path id="Path_1999" data-name="Path 1999" d="M284.925,270.24a.054.054,0,0,1-.106,0l-.054-.348a1.022,1.022,0,0,0-.853-.852l-.348-.054a.053.053,0,0,1,0-.106l.348-.054a1.022,1.022,0,0,0,.853-.852l.054-.349a.054.054,0,0,1,.106,0l.054.349a1.021,1.021,0,0,0,.852.852l.349.054a.053.053,0,0,1,0,.106l-.349.054a1.021,1.021,0,0,0-.852.852Z" transform="translate(-272.241 -259.551)" fill="#111" stroke="#111" stroke-width="1"/>
    </g>
  </g>
</svg>
