<svg xmlns="http://www.w3.org/2000/svg" width="53.967" height="41.975" viewBox="0 0 53.967 41.975">
  <path id="fit_screen_24dp_1F1F1F_FILL0_wght200_GRAD0_opsz24" d="M170.969-748.007v-7.149a1.764,1.764,0,0,0-.576-1.269,1.764,1.764,0,0,0-1.269-.576h-7.149v-3h7.149a4.692,4.692,0,0,1,3.457,1.387,4.692,4.692,0,0,1,1.387,3.457v7.149Zm-50.969,0v-7.149a4.692,4.692,0,0,1,1.387-3.457A4.692,4.692,0,0,1,124.844-760h7.149v3h-7.149a1.764,1.764,0,0,0-1.269.576,1.764,1.764,0,0,0-.576,1.269v7.149Zm41.975,29.982v-3h7.149a1.764,1.764,0,0,0,1.269-.576,1.764,1.764,0,0,0,.576-1.269v-7.149h3v7.149a4.692,4.692,0,0,1-1.387,3.457,4.692,4.692,0,0,1-3.457,1.387Zm-37.131,0a4.692,4.692,0,0,1-3.457-1.387A4.692,4.692,0,0,1,120-722.869v-7.149h3v7.149a1.764,1.764,0,0,0,.576,1.269,1.764,1.764,0,0,0,1.269.576h7.149v3Zm6.688-11.532v-18.911h30.9v18.911Zm3-3h24.907V-745.47H134.53v12.915Zm0,0v0Z" transform="translate(-120 760)" fill="#7841e8"/>
</svg>
